<?xml version="1.0" encoding="UTF-8" standalone="no"?>
<svg
   xmlns:dc="http://purl.org/dc/elements/1.1/"
   xmlns:cc="http://creativecommons.org/ns#"
   xmlns:rdf="http://www.w3.org/1999/02/22-rdf-syntax-ns#"
   xmlns:svg="http://www.w3.org/2000/svg"
   xmlns="http://www.w3.org/2000/svg"
   xmlns:sodipodi="http://sodipodi.sourceforge.net/DTD/sodipodi-0.dtd"
   xmlns:inkscape="http://www.inkscape.org/namespaces/inkscape"
   width="100"
   height="100"
   viewBox="0 0 100 99.999997"
   version="1.1"
   id="svg8"
   sodipodi:docname="chevron-ddown.svg"
   inkscape:version="0.92.4 (5da689c313, 2019-01-14)">
  <metadata
     id="metadata12">
    <rdf:RDF>
      <cc:Work
         rdf:about="">
        <dc:format>image/svg+xml</dc:format>
        <dc:type
           rdf:resource="http://purl.org/dc/dcmitype/StillImage" />
        <dc:title></dc:title>
      </cc:Work>
    </rdf:RDF>
  </metadata>
  <sodipodi:namedview
     pagecolor="#ffffff"
     bordercolor="#666666"
     borderopacity="1"
     objecttolerance="10"
     gridtolerance="10"
     guidetolerance="10"
     inkscape:pageopacity="0"
     inkscape:pageshadow="2"
     inkscape:window-width="1788"
     inkscape:window-height="1375"
     id="namedview10"
     showgrid="false"
     inkscape:pagecheckerboard="true"
     fit-margin-top="0"
     fit-margin-left="0"
     fit-margin-right="0"
     fit-margin-bottom="0"
     inkscape:zoom="5.1492593"
     inkscape:cx="13.690528"
     inkscape:cy="17.044492"
     inkscape:window-x="0"
     inkscape:window-y="0"
     inkscape:window-maximized="0"
     inkscape:current-layer="svg8" />
  <defs
     id="defs4">
    <style
       id="style2">.a{fill:#fff;}</style>
  </defs>
  <path
     class="a"
     d="M 45.866955,49.788403 18.972212,22.908252 a 4.7281044,4.7281044 0 0 1 0,-6.703014 l 4.460568,-4.470294 a 4.7281044,4.7281044 0 0 1 6.703012,0 l 19.077805,19.082672 19.06321,-19.063212 a 4.7281044,4.7281044 0 0 1 6.703014,0 l 4.50921,4.450834 a 4.7281044,4.7281044 0 0 1 0,6.703014 L 52.589426,49.788403 a 4.7329693,4.7329693 0 0 1 -6.722471,0 z m 6.722471,37.965869 26.894743,-26.894714 a 4.7281044,4.7281044 0 0 0 0,-6.703009 l -4.470296,-4.470297 a 4.7281044,4.7281044 0 0 0 -6.70301,0 L 49.213597,68.759198 30.164977,49.681388 a 4.7281044,4.7281044 0 0 0 -6.703012,0 l -4.489753,4.484888 a 4.7281044,4.7281044 0 0 0 0,6.703015 l 26.894743,26.860683 a 4.7329693,4.7329693 0 0 0 6.722471,0.03909 z"
     id="path6"
     inkscape:connector-curvature="0"
     style="fill:#ffffff;stroke-width:4.86430454" />
</svg>
