<?xml version="1.0" encoding="UTF-8" standalone="no"?>
<svg
   xmlns:dc="http://purl.org/dc/elements/1.1/"
   xmlns:cc="http://creativecommons.org/ns#"
   xmlns:rdf="http://www.w3.org/1999/02/22-rdf-syntax-ns#"
   xmlns:svg="http://www.w3.org/2000/svg"
   xmlns="http://www.w3.org/2000/svg"
   xmlns:sodipodi="http://sodipodi.sourceforge.net/DTD/sodipodi-0.dtd"
   xmlns:inkscape="http://www.inkscape.org/namespaces/inkscape"
   width="120.00066"
   height="66.667999"
   viewBox="0 0 120.00067 66.667998"
   version="1.1"
   id="svg8"
   sodipodi:docname="icon-eye.svg"
   inkscape:version="0.92.4 (5da689c313, 2019-01-14)">
  <metadata
     id="metadata12">
    <rdf:RDF>
      <cc:Work
         rdf:about="">
        <dc:format>image/svg+xml</dc:format>
        <dc:type
           rdf:resource="http://purl.org/dc/dcmitype/StillImage" />
        <dc:title></dc:title>
      </cc:Work>
    </rdf:RDF>
  </metadata>
  <sodipodi:namedview
     pagecolor="#ffffff"
     bordercolor="#666666"
     borderopacity="1"
     objecttolerance="10"
     gridtolerance="10"
     guidetolerance="10"
     inkscape:pageopacity="0"
     inkscape:pageshadow="2"
     inkscape:window-width="1887"
     inkscape:window-height="1199"
     id="namedview10"
     showgrid="false"
     inkscape:pagecheckerboard="true"
     inkscape:zoom="7.1308409"
     inkscape:cx="26.09062"
     inkscape:cy="33.334"
     inkscape:window-x="1084"
     inkscape:window-y="266"
     inkscape:window-maximized="0"
     inkscape:current-layer="svg8" />
  <defs
     id="defs4">
    <style
       id="style2">.a{fill:#fff;}</style>
  </defs>
  <path
     class="a"
     d="M 109.39682,30.799206 A 55.685143,55.685143 0 0 0 59.99907,-3.3789052e-7 55.692676,55.692676 0 0 0 10.603834,30.801717 a 5.6169755,5.6169755 0 0 0 0,5.067079 55.685143,55.685143 0 0 0 49.395236,30.799205 55.692676,55.692676 0 0 0 49.39775,-30.801716 5.6169755,5.6169755 0 0 0 0,-5.067079 z M 59.99907,58.334187 A 25.001442,25.001442 0 1 1 85.00051,33.332746 25.001442,25.001442 0 0 1 59.99907,58.334187 Z m 0,-41.669069 A 16.547103,16.547103 0 0 0 55.604922,17.322984 8.3087045,8.3087045 0 0 1 43.989308,28.938598 16.629964,16.629964 0 1 0 59.99907,16.665118 Z"
     id="path6"
     inkscape:connector-curvature="0"
     style="fill:#ffffff;stroke-width:2.51094127" />
</svg>
