<svg xmlns="http://www.w3.org/2000/svg" xmlns:xlink="http://www.w3.org/1999/xlink" width="67" height="66" viewBox="0 0 67 66"><defs><style>.a{fill:#66f7ca;stroke:#66f7ca;stroke-width:3px;}.b{fill:#fff;}.c{stroke:none;}.d{fill:none;}.e{filter:url(#a);}</style><filter id="a" x="0" y="0" width="67" height="66" filterUnits="userSpaceOnUse"><feOffset dy="3" input="SourceAlpha"/><feGaussianBlur stdDeviation="3" result="b"/><feFlood flood-opacity="0.161"/><feComposite operator="in" in2="b"/><feComposite in="SourceGraphic"/></filter></defs><g transform="translate(-117 -562)"><g class="e" transform="matrix(1, 0, 0, 1, 117, 562)"><g class="a" transform="translate(9 6)"><rect class="c" width="49" height="48" rx="24"/><rect class="d" x="1.5" y="1.5" width="46" height="45" rx="22.5"/></g></g><path class="b" d="M28.757,21.03V5.576A2.583,2.583,0,0,0,26.182,3H10.727A2.583,2.583,0,0,0,8.151,5.576V21.03a2.583,2.583,0,0,0,2.576,2.576H26.182A2.583,2.583,0,0,0,28.757,21.03ZM14.591,15.879l2.614,3.49,3.825-4.778,5.151,6.439H10.727ZM3,8.151v18.03a2.583,2.583,0,0,0,2.576,2.576h18.03V26.182H5.576V8.151Z" transform="translate(134.223 575.78)"/></g></svg>