<?xml version="1.0" encoding="UTF-8" standalone="no"?>
<svg
   xmlns:dc="http://purl.org/dc/elements/1.1/"
   xmlns:cc="http://creativecommons.org/ns#"
   xmlns:rdf="http://www.w3.org/1999/02/22-rdf-syntax-ns#"
   xmlns:svg="http://www.w3.org/2000/svg"
   xmlns="http://www.w3.org/2000/svg"
   xmlns:sodipodi="http://sodipodi.sourceforge.net/DTD/sodipodi-0.dtd"
   xmlns:inkscape="http://www.inkscape.org/namespaces/inkscape"
   width="208.0332"
   height="220.37413"
   viewBox="0 0 208.0332 220.37413"
   version="1.1"
   id="svg3794"
   sodipodi:docname="splash-ink.svg"
   inkscape:version="0.92.4 (5da689c313, 2019-01-14)">
  <metadata
     id="metadata3798">
    <rdf:RDF>
      <cc:Work
         rdf:about="">
        <dc:format>image/svg+xml</dc:format>
        <dc:type
           rdf:resource="http://purl.org/dc/dcmitype/StillImage" />
        <dc:title></dc:title>
      </cc:Work>
    </rdf:RDF>
  </metadata>
  <sodipodi:namedview
     pagecolor="#ffffff"
     bordercolor="#666666"
     borderopacity="1"
     objecttolerance="10"
     gridtolerance="10"
     guidetolerance="10"
     inkscape:pageopacity="0"
     inkscape:pageshadow="2"
     inkscape:window-width="1110"
     inkscape:window-height="984"
     id="namedview3796"
     showgrid="false"
     inkscape:zoom="1.0226367"
     inkscape:cx="-68.410781"
     inkscape:cy="108.70587"
     inkscape:window-x="481"
     inkscape:window-y="865"
     inkscape:window-maximized="0"
     inkscape:current-layer="svg3794"
     fit-margin-top="0"
     fit-margin-left="0"
     fit-margin-right="0"
     fit-margin-bottom="0" />
  <defs
     id="defs3776">
    <style
       id="style3774">.a,.d{fill:#43367d;font-family:Oxygen-Regular, Oxygen;letter-spacing:0.05em;}.a{font-size:35px;}.b{fill:#66fcca;}.b,.c{mix-blend-mode:darken;isolation:isolate;}.c{fill:#e87ad7;}.d{font-size:21px;}</style>
  </defs>
  <g
     transform="translate(-85.107422,-179.94374)"
     id="g3792">
    <g
       aria-label="permasnap"
       transform="translate(85,356)"
       style="font-size:35px;font-family:Oxygen-Regular, Oxygen;letter-spacing:0.05em;fill:#43367d"
       id="text3780">
      <path
         d="m 19.960937,-9.7753906 q 0,2.3242187 -0.666503,4.2553711 -0.666504,1.9140625 -1.879883,3.2470703 -1.12793,1.2646484 -2.666016,1.96533201 -1.520996,0.68359375 -3.22998,0.68359375 -1.486817,0 -2.7001956,-0.32470703 Q 7.6220703,-0.2734375 6.3745117,-0.95703125 V 7.0410156 H 3.1616211 V -19.089355 h 3.2128906 v 1.999511 q 1.2817383,-1.07666 2.8710938,-1.794433 1.6064455,-0.734864 3.4179685,-0.734864 3.452149,0 5.366211,2.614746 1.931152,2.597657 1.931152,7.2290044 z m -3.315429,0.085449 q 0,-3.4521484 -1.179199,-5.1611324 -1.1792,-1.708985 -3.623047,-1.708985 -1.384278,0 -2.7856448,0.598145 -1.4013672,0.598144 -2.6831055,1.572266 v 10.8178705 q 1.3671875,0.6152343 2.3413086,0.8374023 0.991211,0.222168 2.2387697,0.222168 2.683105,0 4.187012,-1.8115235 1.503906,-1.8115234 1.503906,-5.3662109 z"
         id="path3800"
         inkscape:connector-curvature="0" />
      <path
         d="M 42.697266,-9.2114258 H 28.632324 q 0,1.7602539 0.529785,3.0761719 0.529786,1.2988281 1.452637,2.1362305 0.888672,0.8203125 2.102051,1.2304687 1.230469,0.4101563 2.700195,0.4101563 1.948242,0 3.913574,-0.769043 1.982422,-0.7861328 2.819825,-1.5380859 h 0.170898 v 3.5034179 q -1.623535,0.68359377 -3.31543,1.14501956 -1.691894,0.46142578 -3.554687,0.46142578 -4.750977,0 -7.416992,-2.56347654 -2.666016,-2.5805664 -2.666016,-7.3144532 0,-4.6826172 2.546387,-7.4340822 2.563476,-2.751465 6.733398,-2.751465 3.862305,0 5.947266,2.25586 2.102051,2.255859 2.102051,6.408691 z m -3.127442,-2.4609372 q -0.01709,-2.529297 -1.281738,-3.913575 -1.247559,-1.384277 -3.811035,-1.384277 -2.580567,0 -4.118653,1.520996 -1.520996,1.520996 -1.726074,3.776856 z"
         id="path3802"
         inkscape:connector-curvature="0" />
      <path
         d="m 61.229492,-15.585938 h -0.170898 q -0.717774,-0.170898 -1.401367,-0.239257 -0.666504,-0.08545 -1.589356,-0.08545 -1.486816,0 -2.871094,0.666504 -1.384277,0.649414 -2.666015,1.691895 V 0 h -3.212891 v -19.089355 h 3.212891 v 2.819824 q 1.914062,-1.538086 3.366699,-2.17041 1.469726,-0.649414 2.990723,-0.649414 0.837402,0 1.213378,0.05127 0.375977,0.03418 1.12793,0.153809 z"
         id="path3804"
         inkscape:connector-curvature="0" />
      <path
         d="m 93.89502,0 h -3.212891 v -10.869141 q 0,-1.230468 -0.119629,-2.375488 -0.102539,-1.145019 -0.461426,-1.828613 -0.393066,-0.734863 -1.127929,-1.11084 -0.734864,-0.375977 -2.119141,-0.375977 -1.350098,0 -2.700195,0.683594 -1.350098,0.666504 -2.700196,1.708985 0.05127,0.393066 0.08545,0.922851 0.03418,0.512695 0.03418,1.025391 V 0 h -3.21289 v -10.869141 q 0,-1.264648 -0.119629,-2.392578 -0.102539,-1.145019 -0.461426,-1.828613 -0.393067,-0.734863 -1.12793,-1.09375 -0.734863,-0.375977 -2.11914,-0.375977 -1.315918,0 -2.648926,0.649414 -1.315918,0.649415 -2.631836,1.657715 V 0 h -3.212891 v -19.089355 h 3.212891 v 2.11914 q 1.503906,-1.247558 2.990722,-1.948242 1.503907,-0.700684 3.195801,-0.700684 1.948242,0 3.29834,0.820313 1.367188,0.820312 2.033692,2.272949 1.948242,-1.640625 3.554687,-2.358398 1.606445,-0.734864 3.435059,-0.734864 3.144531,0 4.631347,1.914063 1.503907,1.896973 1.503907,5.314941 z"
         id="path3806"
         inkscape:connector-curvature="0" />
      <path
         d="m 116.66553,0 h -3.1958 v -2.0336914 q -0.42725,0.2905273 -1.16211,0.8203125 -0.71778,0.51269531 -1.40137,0.82031249 Q 110.10303,0 109.06055,0.25634766 q -1.04248,0.2734375 -2.44385,0.2734375 -2.58057,0 -4.375,-1.70898436 -1.79443,-1.7089844 -1.79443,-4.3579102 0,-2.1704101 0.92285,-3.5034179 0.93994,-1.3500977 2.66601,-2.1191407 1.74317,-0.769043 4.18701,-1.04248 2.44385,-0.273438 5.24659,-0.410157 v -0.495605 q 0,-1.09375 -0.39307,-1.811524 -0.37598,-0.717773 -1.09375,-1.127929 -0.68359,-0.393067 -1.64062,-0.529785 -0.95704,-0.136719 -1.99952,-0.136719 -1.26464,0 -2.81982,0.341797 -1.55518,0.324707 -3.21289,0.957031 h -0.1709 v -3.26416 q 0.93994,-0.256348 2.71729,-0.563965 1.77734,-0.307617 3.50341,-0.307617 2.0166,0 3.50342,0.341797 1.50391,0.324707 2.59766,1.127929 1.07666,0.786133 1.64062,2.033692 0.56397,1.247558 0.56397,3.093261 z m -3.1958,-4.699707 v -5.314941 q -1.46973,0.085449 -3.46924,0.2563472 -1.98242,0.1708985 -3.14453,0.4956055 -1.38428,0.3930664 -2.23877,1.2304687 -0.85449,0.8203125 -0.85449,2.2729493 0,1.640625 0.99121,2.4780273 0.99121,0.8203125 3.0249,0.8203125 1.69189,0 3.09326,-0.6494141 1.40137,-0.6665039 2.59766,-1.5893554 z"
         id="path3808"
         inkscape:connector-curvature="0" />
      <path
         d="m 138.27393,-5.5029297 q 0,2.6147461 -2.17041,4.2895508 -2.15332,1.67480468 -5.896,1.67480468 -2.11914,0 -3.89648,-0.49560547 -1.76026,-0.51269531 -2.95655,-1.11083981 v -3.6059571 h 0.1709 q 1.521,1.1450196 3.38379,1.8286133 1.86279,0.6665039 3.57178,0.6665039 2.11914,0 3.31543,-0.6835937 1.19629,-0.6835938 1.19629,-2.1533203 0,-1.1279297 -0.64942,-1.7089844 -0.64941,-0.5810547 -2.49512,-0.9912109 -0.68359,-0.1538086 -1.79443,-0.3588868 -1.09375,-0.2050781 -1.99951,-0.4443359 -2.51221,-0.6665039 -3.57178,-1.9482426 -1.04248,-1.298828 -1.04248,-3.178711 0,-1.179199 0.47852,-2.221679 0.4956,-1.042481 1.48681,-1.862793 0.95703,-0.803223 2.42676,-1.264649 1.48682,-0.478515 3.31543,-0.478515 1.70899,0 3.45215,0.427246 1.76025,0.410156 2.92236,1.008301 v 3.435058 h -0.1709 q -1.23046,-0.905762 -2.99072,-1.520996 -1.76025,-0.632324 -3.45215,-0.632324 -1.76025,0 -2.97363,0.683594 -1.21338,0.666504 -1.21338,1.999511 0,1.1792 0.73486,1.777344 0.71778,0.598145 2.32422,0.974121 0.88868,0.205078 1.98243,0.410156 1.11084,0.205079 1.8457,0.375977 2.23877,0.512695 3.45215,1.7602539 1.21338,1.2646485 1.21338,3.3496094 z"
         id="path3810"
         inkscape:connector-curvature="0" />
      <path
         d="m 160.6001,0 h -3.21289 v -10.869141 q 0,-1.315918 -0.15381,-2.460937 -0.15381,-1.16211 -0.56397,-1.811524 -0.42724,-0.717773 -1.23047,-1.05957 -0.80322,-0.358887 -2.08496,-0.358887 -1.31591,0 -2.75146,0.649414 -1.43555,0.649415 -2.75147,1.657715 V 0 h -3.21289 v -19.089355 h 3.21289 v 2.11914 q 1.50391,-1.247558 3.11036,-1.948242 1.60644,-0.700684 3.29834,-0.700684 3.09326,0 4.71679,1.862793 1.62354,1.862793 1.62354,5.366211 z"
         id="path3812"
         inkscape:connector-curvature="0" />
      <path
         d="m 183.37061,0 h -3.19581 v -2.0336914 q -0.42724,0.2905273 -1.1621,0.8203125 -0.71778,0.51269531 -1.40137,0.82031249 Q 176.80811,0 175.76562,0.25634766 q -1.04248,0.2734375 -2.44384,0.2734375 -2.58057,0 -4.375,-1.70898436 -1.79444,-1.7089844 -1.79444,-4.3579102 0,-2.1704101 0.92286,-3.5034179 0.93994,-1.3500977 2.66601,-2.1191407 1.74316,-0.769043 4.18701,-1.04248 2.44385,-0.273438 5.24658,-0.410157 v -0.495605 q 0,-1.09375 -0.39306,-1.811524 -0.37598,-0.717773 -1.09375,-1.127929 -0.6836,-0.393067 -1.64063,-0.529785 -0.95703,-0.136719 -1.99951,-0.136719 -1.26465,0 -2.81982,0.341797 -1.55518,0.324707 -3.21289,0.957031 h -0.1709 v -3.26416 q 0.93994,-0.256348 2.71728,-0.563965 1.77735,-0.307617 3.50342,-0.307617 2.0166,0 3.50342,0.341797 1.50391,0.324707 2.59766,1.127929 1.07666,0.786133 1.64062,2.033692 0.56397,1.247558 0.56397,3.093261 z m -3.19581,-4.699707 v -5.314941 q -1.46972,0.085449 -3.46923,0.2563472 -1.98243,0.1708985 -3.14453,0.4956055 -1.38428,0.3930664 -2.23877,1.2304687 -0.8545,0.8203125 -0.8545,2.2729493 0,1.640625 0.99121,2.4780273 0.99122,0.8203125 3.02491,0.8203125 1.69189,0 3.09326,-0.6494141 1.40137,-0.6665039 2.59765,-1.5893554 z"
         id="path3814"
         inkscape:connector-curvature="0" />
      <path
         d="m 208.14062,-9.7753906 q 0,2.3242187 -0.6665,4.2553711 -0.6665,1.9140625 -1.87988,3.2470703 -1.12793,1.2646484 -2.66602,1.96533201 -1.52099,0.68359375 -3.22998,0.68359375 -1.48681,0 -2.70019,-0.32470703 -1.19629,-0.32470703 -2.44385,-1.00830078 V 7.0410156 h -3.21289 V -19.089355 h 3.21289 v 1.999511 q 1.28174,-1.07666 2.87109,-1.794433 1.60645,-0.734864 3.41797,-0.734864 3.45215,0 5.36621,2.614746 1.93115,2.597657 1.93115,7.2290044 z m -3.31542,0.085449 q 0,-3.4521484 -1.1792,-5.1611324 -1.1792,-1.708985 -3.62305,-1.708985 -1.38428,0 -2.78565,0.598145 -1.40136,0.598144 -2.6831,1.572266 v 10.8178705 q 1.36719,0.6152343 2.34131,0.8374023 0.99121,0.222168 2.23877,0.222168 2.6831,0 4.18701,-1.8115235 1.50391,-1.8115234 1.50391,-5.3662109 z"
         id="path3816"
         inkscape:connector-curvature="0" />
    </g>
    <g
       transform="translate(85.758,176.224)"
       id="g3786">
      <rect
         class="b"
         width="94.070999"
         height="94.070999"
         rx="9"
         transform="rotate(45,33.259,80.294329)"
         id="rect3782"
         x="0"
         y="0"
         style="isolation:isolate;mix-blend-mode:darken;fill:#66fcca" />
      <rect
         class="c"
         width="94.070999"
         height="94.070999"
         rx="10"
         transform="rotate(45,61.862,149.34808)"
         id="rect3784"
         x="0"
         y="0"
         style="isolation:isolate;mix-blend-mode:darken;fill:#e87ad7" />
    </g>
    <text
       class="d"
       transform="translate(84,400)"
       id="text3790"
       style="font-size:21px;font-family:Oxygen-Regular, Oxygen;letter-spacing:0.05em;fill:#43367d">
      <tspan
         x="0"
         y="0"
         id="tspan3788">durable memories</tspan>
    </text>
  </g>
</svg>
